<svg width="70" height="53" viewBox="0 0 70 53" fill="none" xmlns="http://www.w3.org/2000/svg">
<path d="M17.0971 18.4673H14.3465V15.7251C14.3465 15.5062 14.1739 15.3334 13.9552 15.3334H10.8248C10.6062 15.3334 10.4335 15.5062 10.4335 15.7251V18.4673H7.68293C7.46426 18.4673 7.29163 18.6401 7.29163 18.8591V22.0045C7.29163 22.2234 7.46426 22.3962 7.68293 22.3962H10.4335V25.15C10.4335 25.3689 10.6062 25.5417 10.8248 25.5417H13.9667C14.1854 25.5417 14.358 25.3689 14.358 25.15V22.3962H17.1087C17.3273 22.3962 17.5 22.2234 17.5 22.0045V18.8591C17.4769 18.6401 17.2928 18.4673 17.0971 18.4673Z" fill="#CC2A27"/>
<path d="M7.22537 46.3789L7.19362 46.244H7.05503H1.91956C0.957874 46.244 0.175 45.4571 0.175 44.4847V12.2346C0.175 9.13061 2.68164 6.60664 5.75868 6.60664H32.1693H42.4313H52.4386C54.1768 6.60664 55.7842 7.40003 56.8506 8.78479L68.6533 24.1174C69.409 25.099 69.825 26.3239 69.825 27.5672V44.4847C69.825 45.4571 69.0421 46.244 68.0804 46.244H62.9437H62.8051L62.7733 46.3789C61.9224 49.9947 58.6941 52.6917 54.8521 52.6917C51.0114 52.6917 47.7818 49.9947 46.9309 46.3789L46.8991 46.244H46.7605H23.2382H23.0996L23.0679 46.3789C22.2169 49.9947 18.9874 52.6917 15.1466 52.6917C11.3059 52.6917 8.07636 49.9947 7.22537 46.3789ZM55.7556 13.5624H56.1112L55.8942 13.2806L54.0937 10.9428C54.0937 10.9428 54.0937 10.9427 54.0937 10.9427C53.6948 10.4241 53.0909 10.1253 52.4386 10.1253H5.75868C4.60246 10.1253 3.66412 11.0727 3.66412 12.2346V42.5504V42.7254H3.83912H7.05503H7.19362L7.22537 42.5905C8.07636 38.9747 11.3059 36.2777 15.1466 36.2777C18.9874 36.2777 22.2169 38.9747 23.0679 42.5905L23.0996 42.7254H23.2382H46.7618H46.9004L46.9321 42.5905C47.7831 38.9747 51.0114 36.2777 54.8534 36.2777C58.6941 36.2777 61.9236 38.9747 62.7746 42.5905L62.8064 42.7254H62.945H66.1609H66.3359V42.5504V27.5672C66.3359 27.4047 66.3162 27.2457 66.2801 27.0904L66.2487 26.9551H66.1097H51.1115C50.1498 26.9551 49.367 26.1681 49.367 25.1957V15.3217C49.367 14.3494 50.1498 13.5624 51.1115 13.5624H55.7556ZM63.3558 23.4364H63.7113L63.4944 23.1547L58.8708 17.1493L58.8183 17.081H58.7322H53.0298H52.8548V17.256V23.2614V23.4364H53.0298H63.3558ZM54.8534 49.1731C57.4211 49.1731 59.5074 47.0689 59.5074 44.4847C59.5074 41.9005 57.4211 39.7963 54.8534 39.7963C52.2856 39.7963 50.1994 41.9005 50.1994 44.4847C50.1994 47.0689 52.2856 49.1731 54.8534 49.1731ZM15.1466 49.1731C17.7144 49.1731 19.8006 47.0689 19.8006 44.4847C19.8006 41.9005 17.7144 39.7963 15.1466 39.7963C12.5789 39.7963 10.4926 41.9005 10.4926 44.4847C10.4926 47.0689 12.5789 49.1731 15.1466 49.1731Z" fill="#7C5961" stroke="white" stroke-width="0.35"/>
<path d="M30.0245 17.6186H29.8995V17.7436V23.749V23.874H30.0245H40.3224H40.4474V23.749V17.7436V17.6186H40.3224H30.0245ZM42.2419 27.4926H28.105C27.114 27.4926 26.3104 26.6842 26.3104 25.6833V15.8093C26.3104 14.8097 27.1153 14 28.105 14H42.2419C43.2316 14 44.0365 14.8097 44.0365 15.8093V25.6833C44.0365 26.6829 43.2316 27.4926 42.2419 27.4926Z" fill="#7C5961" stroke="white" stroke-width="0.25"/>
<path d="M40.5117 0.75H34.0889C33.0293 0.75 32.1693 1.61657 32.1693 2.68431V6.43172H36.0084H38.5922H42.4313V2.68431C42.4313 1.61657 41.5713 0.75 40.5117 0.75Z" fill="#CC2A27"/>
</svg>
