<svg width="48" height="44" viewBox="0 0 48 44" fill="none" xmlns="http://www.w3.org/2000/svg">
<path d="M22.2833 17.7143C25.5913 17.7143 28.2861 14.9648 28.2861 11.5896C28.2861 8.4325 23.3297 1.5788 22.7671 0.803886C22.5421 0.49392 22.0358 0.49392 21.8051 0.803886C21.2425 1.57306 16.2861 8.42676 16.2861 11.5896C16.2861 14.9648 18.9753 17.7143 22.2833 17.7143ZM19.2847 10.9696C19.6167 10.9696 19.8867 11.2452 19.8867 11.5838C19.8867 12.9385 20.9612 14.0349 22.2889 14.0349C22.6209 14.0349 22.8909 14.3104 22.8909 14.649C22.8909 14.9877 22.6209 15.2632 22.2889 15.2632C20.303 15.2632 18.6884 13.6158 18.6884 11.5838C18.6828 11.2452 18.9528 10.9696 19.2847 10.9696Z" fill="#CC2A27"/>
<path d="M41.5803 22.0993L35.2921 26.7442C33.9846 25.1717 31.9228 24.4169 29.8933 24.7649L23.4658 25.8763C22.4414 26.0524 21.391 25.998 20.3904 25.7183L19.6717 25.5154C15.9782 24.4671 11.9983 25.2838 9.03194 27.6975L8.76179 26.1688C8.67966 25.7044 8.23228 25.3948 7.76329 25.4759L0.714395 26.6929C0.244324 26.7741 -0.0690563 27.216 0.013071 27.6793L2.71787 42.9592C2.79027 43.367 3.14796 43.6648 3.56724 43.6648C3.61695 43.6648 3.66773 43.6606 3.71636 43.652L10.7642 42.4339C11.2343 42.3528 11.5476 41.9108 11.4655 41.4475L11.3272 40.6704L12.9719 39.3519C13.6159 38.8224 14.4437 38.5609 15.279 38.6228L26.7725 39.4523C26.792 39.4533 26.8103 39.4544 26.8298 39.4544H26.9C29.4362 39.4491 31.9055 38.6505 33.9543 37.1731C33.9867 37.1485 34.0181 37.1229 34.0473 37.0951L47.7409 23.8522C48.0672 23.5362 48.0878 23.0248 47.7884 22.6832C46.2097 20.8823 43.4757 20.625 41.5803 22.0993ZM4.27072 41.8254L1.86202 28.2259L7.20893 27.3014L9.61764 40.902L4.27072 41.8254ZM32.8867 35.8226C31.1436 37.061 29.0505 37.7282 26.9022 37.7282H26.8698L15.4055 36.9115C14.1271 36.8186 12.8627 37.2179 11.8772 38.0282L10.9879 38.7445L9.38315 29.6821C11.9431 27.1328 15.7048 26.1634 19.1984 27.1552L19.917 27.358C21.1673 27.7082 22.4814 27.7754 23.7619 27.5566L30.1894 26.4463C32.0308 26.1303 33.8484 27.1189 34.5638 28.8248L24.9409 30.4881C24.5 30.5639 24.1898 30.9599 24.2287 31.4008C24.2676 31.8417 24.6404 32.1812 25.0889 32.1812C25.1386 32.1812 25.1894 32.1769 25.238 32.1684L35.8043 30.3407C36.2744 30.2596 36.5878 29.8176 36.5057 29.3543C36.4365 28.9657 36.3274 28.5857 36.1782 28.2195L42.6209 23.4593C42.6274 23.4551 42.6328 23.4497 42.6393 23.4454C43.5686 22.7163 44.8632 22.6469 45.866 23.2725L32.8867 35.8226Z" fill="#7C5961"/>
</svg>
