<svg width="73" height="53" viewBox="0 0 73 53" fill="none" xmlns="http://www.w3.org/2000/svg">
<path d="M39.6675 8.36665L39.6694 8.36408C41.714 5.48886 45.2143 2.25 50.6719 2.25C54.6179 2.25 58.1947 3.86627 60.7797 6.79977C63.2669 9.62781 64.6667 13.4379 64.6667 17.555C64.6667 21.9607 62.9695 26.1428 59.0595 30.7976L59.0592 30.7979C55.5232 35.0101 50.4047 39.3763 44.3104 44.5656L44.3091 44.5668C43.9918 44.8376 43.6726 45.1098 43.3515 45.3837C41.3953 47.052 39.3647 48.7837 37.2253 50.6581L37.1518 50.7211C37.1441 50.7277 37.1365 50.7344 37.1289 50.7411C37.1195 50.7495 37.1049 50.7593 37.0821 50.7676C37.0582 50.7763 37.0295 50.7816 37 50.7816C36.9705 50.7816 36.9418 50.7763 36.9179 50.7676C36.8951 50.7593 36.8805 50.7495 36.8711 50.7411C36.8635 50.7344 36.8559 50.7277 36.8482 50.7211L36.7747 50.6581C34.6351 48.7836 32.6044 47.0517 30.6481 45.3833C30.3271 45.1095 30.0081 44.8375 29.6909 44.5668L29.6896 44.5656C23.5953 39.3763 18.4768 35.0101 14.9408 30.7979L14.9405 30.7976C11.0305 26.1428 9.33333 21.9607 9.33333 17.555C9.33333 13.4379 10.733 9.62784 13.2202 6.7998C15.8052 3.86629 19.3821 2.25 23.3281 2.25C28.7829 2.25 32.2824 5.48552 34.3275 8.35963C34.8487 9.10467 35.3054 9.85928 35.6748 10.5559C35.9357 11.048 36.4477 11.3549 37.0046 11.3532C37.5616 11.3515 38.0717 11.0413 38.3295 10.5477C38.699 9.84048 39.1417 9.10286 39.6675 8.36665Z" stroke="#7C5961" stroke-width="3" stroke-linecap="round" stroke-linejoin="round"/>
<path d="M2 29.203H21.7074L27.5466 18.2544L35.5756 38.6917L42.8746 13.875L47.254 28.4731L51.6334 22.6338L55.283 28.4731H71.3408" stroke="#CC2A27" stroke-width="3" stroke-linecap="round" stroke-linejoin="round"/>
</svg>
