<svg width="53" height="60" viewBox="0 0 53 60" fill="none" xmlns="http://www.w3.org/2000/svg">
<path d="M15.839 1.94611V14.6772H2.21411C2.21411 14.6772 -2.78948 23.7345 2.21411 33.7194H15.839V46.4505C15.839 46.4505 25.5222 51.1428 36.5013 46.4505V33.8467H50.1262C50.1262 33.8467 54.9498 25.2805 50.1262 14.6227H36.4113V1.94611C36.4293 1.94611 26.8181 -2.43703 15.839 1.94611Z" fill="#E12429"/>
<path d="M26.3678 21.7883C28.8429 21.7883 30.8494 19.9562 30.8494 17.6962C30.8494 15.4361 28.8429 13.604 26.3678 13.604C23.8927 13.604 21.8862 15.4361 21.8862 17.6962C21.8862 19.9562 23.8927 21.7883 26.3678 21.7883Z" fill="white"/>
<path d="M17.3685 20.2789C17.2066 20.2061 17.0446 20.1334 16.8826 20.0606C16.3246 19.8606 15.6947 19.7151 15.1007 19.7878C14.2008 19.9151 13.8408 20.4789 13.4809 21.1882C13.4809 21.1882 10.6911 28.2995 21.5802 35.0106C21.5802 35.0106 27.5017 38.9755 28.8336 39.3392C28.8336 39.3392 21.4722 33.5738 20.8783 29.7363C20.8783 29.7363 23.542 33.5556 25.4859 35.1925C25.8998 35.5381 26.5478 35.4835 26.8538 35.0652C28.3116 33.1191 32.6133 27.7175 37.4549 25.0076C37.4549 25.0076 42.6025 21.3519 48.074 23.7708C47.984 23.7345 47.858 23.5162 47.7861 23.4435C47.4621 23.0797 47.0661 22.7705 46.6701 22.4977C45.9322 21.9885 45.1043 21.5702 44.2223 21.3156C41.5766 20.5517 38.3008 20.6426 35.6191 21.6247C34.1612 22.1522 32.7213 22.6978 31.2454 23.1343C30.1115 23.4617 28.9776 23.7709 27.8257 23.9527C26.7098 24.1346 25.5579 24.2801 24.442 24.08C23.434 23.8982 22.4621 23.5344 21.5982 23.0252C20.4283 22.3159 19.3484 21.4792 18.1785 20.7881C17.9085 20.5881 17.6385 20.4244 17.3685 20.2789Z" fill="white"/>
<path d="M5.84952 52.707H6.89344C6.96543 52.707 7.03742 52.7616 7.03742 52.8343V59.8001C7.03742 59.8728 6.98343 59.9274 6.89344 59.9274H5.84952C5.77753 59.9274 5.70553 59.8728 5.70553 59.8001V56.8719C5.70553 56.8356 5.68753 56.8174 5.65154 56.8174H3.47372C3.43772 56.8174 3.41972 56.8356 3.41972 56.8719V59.8001C3.41972 59.8728 3.36572 59.9274 3.27573 59.9274H2.23182C2.15982 59.9274 2.08783 59.8728 2.08783 59.8001V52.8343C2.08783 52.7616 2.14183 52.707 2.23182 52.707H3.27573C3.34773 52.707 3.41972 52.7616 3.41972 52.8343V55.7261C3.41972 55.7625 3.43772 55.7807 3.47372 55.7807H5.65154C5.68753 55.7807 5.70553 55.7625 5.70553 55.7261V52.8343C5.70553 52.7616 5.75953 52.707 5.84952 52.707Z" fill="#E12429"/>
<path d="M11.5731 58.3997C11.6091 58.3269 11.6631 58.2905 11.7531 58.3087L12.599 58.5088C12.671 58.527 12.725 58.5815 12.707 58.6543C12.437 59.4545 11.6811 59.982 10.5652 59.982C9.39525 59.982 8.60332 59.4 8.40533 58.5088C8.29734 58.1268 8.24335 57.7085 8.24335 57.2175C8.24335 56.8537 8.26135 56.5264 8.29734 56.2172C8.44133 55.2169 9.25126 54.5439 10.5292 54.5439C11.951 54.5439 12.671 55.2714 12.779 56.4354C12.815 56.781 12.833 57.2357 12.833 57.563C12.833 57.654 12.779 57.6904 12.689 57.6904H9.61124C9.57524 57.6904 9.55724 57.7085 9.55724 57.7449C9.55724 57.9268 9.57524 58.0723 9.59324 58.1996C9.66523 58.6543 10.0612 58.9635 10.6192 58.9635C11.1051 58.9635 11.4111 58.727 11.5731 58.3997ZM9.59324 56.3263C9.57524 56.4718 9.53924 56.6355 9.53924 56.7992C9.53924 56.8355 9.55724 56.8537 9.59324 56.8537H11.4111C11.4471 56.8537 11.4651 56.8355 11.4651 56.7992C11.4471 56.6537 11.4471 56.49 11.4111 56.3627C11.3391 55.908 11.0151 55.617 10.4752 55.617C10.0072 55.5988 9.68323 55.8898 9.59324 56.3263Z" fill="#E12429"/>
<path d="M18.1965 56.3081V59.8001C18.1965 59.8728 18.1425 59.9274 18.0525 59.9274H17.0086C16.9366 59.9274 16.8646 59.8728 16.8646 59.8001V59.5454C16.8646 59.5091 16.8286 59.4909 16.7926 59.5272C16.4686 59.8546 15.9647 60.0183 15.3887 60.0183C14.5248 60.0183 13.5889 59.6727 13.5889 58.4724C13.5889 57.272 14.5068 56.7628 15.8927 56.7628H16.7926C16.8286 56.7628 16.8466 56.7446 16.8466 56.7082V56.4536C16.8466 55.9443 16.5226 55.6352 15.9467 55.6352C15.4967 55.6352 15.2087 55.8352 15.1367 56.1444C15.1187 56.2353 15.0647 56.2535 14.9928 56.2535L13.8768 56.199C13.7869 56.1808 13.7329 56.1444 13.7509 56.0898C13.8588 55.2169 14.7408 54.5985 15.9647 54.5985C17.2966 54.5803 18.1965 55.2896 18.1965 56.3081ZM16.8646 58.1814V57.654C16.8646 57.6176 16.8466 57.5994 16.8106 57.5994H16.0367C15.3887 57.5994 14.9568 57.854 14.9568 58.3633C14.9568 58.8179 15.3167 59.0362 15.7667 59.0362C16.3246 59.0362 16.8646 58.7088 16.8646 58.1814Z" fill="#E12429"/>
<path d="M19.3124 59.8001V52.8343C19.3124 52.7616 19.3664 52.707 19.4564 52.707H20.5003C20.5723 52.707 20.6443 52.7616 20.6443 52.8343V59.8001C20.6443 59.8728 20.5903 59.9274 20.5003 59.9274H19.4564C19.3664 59.9092 19.3124 59.8728 19.3124 59.8001Z" fill="#E12429"/>
<path d="M24.478 55.5624H23.5601C23.5241 55.5624 23.5061 55.5805 23.5061 55.6169V58.1813C23.5061 58.6906 23.74 58.8724 24.19 58.8724H24.388C24.46 58.8724 24.532 58.927 24.532 58.9998V59.7636C24.532 59.8364 24.478 59.8909 24.388 59.8909H23.902C22.8761 59.8909 22.2102 59.6727 22.2102 58.6178V55.5987C22.2102 55.5624 22.1922 55.5442 22.1562 55.5442H21.6342C21.5622 55.5442 21.4902 55.4896 21.4902 55.4169V54.7621C21.4902 54.6894 21.5442 54.6348 21.6342 54.6348H22.1562C22.1922 54.6348 22.2102 54.6166 22.2102 54.5802V53.3981C22.2102 53.3253 22.2642 53.2708 22.3542 53.2708H23.3621C23.4341 53.2708 23.5061 53.3253 23.5061 53.3981V54.5802C23.5061 54.6166 23.5241 54.6348 23.5601 54.6348H24.478C24.55 54.6348 24.622 54.6894 24.622 54.7621V55.4169C24.622 55.5078 24.55 55.5624 24.478 55.5624Z" fill="#E12429"/>
<path d="M30.0215 56.3627V59.8001C30.0215 59.8728 29.9675 59.9274 29.8775 59.9274H28.8336C28.7616 59.9274 28.6896 59.8728 28.6896 59.8001V56.5264C28.6896 55.9626 28.3656 55.617 27.8077 55.617C27.3217 55.617 26.9798 55.908 26.9078 56.3809V59.8001C26.9078 59.8728 26.8538 59.9274 26.7638 59.9274H25.7379C25.6659 59.9274 25.5939 59.8728 25.5939 59.8001V52.8343C25.5939 52.7616 25.6479 52.707 25.7379 52.707H26.7818C26.8538 52.707 26.9258 52.7616 26.9258 52.8343V55.0532C26.9258 55.0896 26.9618 55.1078 26.9978 55.0714C27.3217 54.7258 27.7717 54.5803 28.2577 54.5803C29.3556 54.5803 30.0215 55.2351 30.0215 56.3627Z" fill="#E12429"/>
<path d="M38.5708 54.8349C38.5708 56.0899 37.6709 56.9265 36.339 56.9265H34.9351C34.8991 56.9265 34.8811 56.9447 34.8811 56.9811V59.8001C34.8811 59.8728 34.8271 59.9274 34.7372 59.9274H33.6932C33.6212 59.9274 33.5493 59.8728 33.5493 59.8001V52.8343C33.5493 52.7616 33.6033 52.707 33.6932 52.707H36.339C37.6709 52.707 38.5708 53.5618 38.5708 54.8349ZM37.257 54.8713C37.257 54.1802 36.807 53.7437 36.141 53.7437H34.9351C34.8991 53.7437 34.8811 53.7619 34.8811 53.7983V55.9444C34.8811 55.9808 34.8991 55.9989 34.9351 55.9989H36.141C36.807 55.9808 37.257 55.5443 37.257 54.8713Z" fill="#E12429"/>
<path d="M39.4888 59.8001V52.8343C39.4888 52.7616 39.5428 52.707 39.6328 52.707H40.6767C40.7487 52.707 40.8207 52.7616 40.8207 52.8343V59.8001C40.8207 59.8728 40.7667 59.9274 40.6767 59.9274H39.6328C39.5428 59.9092 39.4888 59.8728 39.4888 59.8001Z" fill="#E12429"/>
<path d="M45.2123 54.6531H46.2563C46.3282 54.6531 46.4002 54.7076 46.4002 54.7804V59.8001C46.4002 59.8728 46.3462 59.9274 46.2563 59.9274H45.2123C45.1403 59.9274 45.0683 59.8728 45.0683 59.8001V59.5273C45.0683 59.4909 45.0323 59.4727 44.9964 59.5091C44.7264 59.8547 44.2944 60.0002 43.7724 60.0002C42.8005 60.0002 41.9726 59.4909 41.9726 58.3633V54.7986C41.9726 54.7258 42.0266 54.6713 42.1166 54.6713H43.1605C43.2325 54.6713 43.3045 54.7258 43.3045 54.7986V58.0723C43.3045 58.6543 43.6105 58.9817 44.1684 58.9817C44.7264 58.9817 45.0683 58.6179 45.0683 58.0541V54.7986C45.0683 54.7076 45.1223 54.6531 45.2123 54.6531Z" fill="#E12429"/>
<path d="M47.4261 58.527V58.436C47.4261 58.3633 47.4801 58.3087 47.5701 58.3087H48.5601C48.632 58.3087 48.704 58.3451 48.704 58.3815V58.4724C48.704 58.7998 49.082 59.0726 49.622 59.0726C50.1439 59.0726 50.4499 58.818 50.4499 58.4906C50.4499 58.0541 49.8379 57.945 49.19 57.7267C48.4161 57.5085 47.4801 57.1447 47.4801 56.1262C47.4801 55.1441 48.3261 54.5803 49.568 54.5803C50.8639 54.5803 51.6918 55.2169 51.6918 56.1444V56.1626C51.6918 56.2354 51.6378 56.2899 51.5478 56.2899H50.5759C50.5039 56.2899 50.4319 56.2536 50.4319 56.199V56.1081C50.4319 55.7807 50.0899 55.5079 49.55 55.5079C49.046 55.5079 48.722 55.7625 48.722 56.0717C48.722 56.49 49.298 56.6355 49.9459 56.8174C50.7559 57.072 51.7458 57.3994 51.7458 58.4178C51.7458 59.3636 50.8819 59.9456 49.586 59.9456C48.2721 59.982 47.4261 59.3818 47.4261 58.527Z" fill="#E12429"/>
<path d="M33.6212 37.0294H31.0474V39.412H29.6255V37.0294H27.0518V35.7199H29.6255V33.3374H31.0474V35.7199H33.6212V37.0294Z" fill="white"/>
</svg>
