<svg width="29" height="48" viewBox="0 0 29 48" fill="none" xmlns="http://www.w3.org/2000/svg">
<path d="M1 9.38256C1 4.76785 4.76785 1 9.38256 1C14.0124 1 17.7724 4.76104 17.7724 9.38256V23.7884H1V9.38256Z" stroke="#7C5961" stroke-width="2" stroke-miterlimit="10"/>
<path d="M17.7725 38.2662C17.7725 42.881 14.0046 46.6488 9.3899 46.6488C4.76005 46.6488 1.00003 42.8878 1.00003 38.2662L1.00003 23.8604L17.7725 23.8604L17.7725 38.2662Z" stroke="#7C5961" stroke-width="2" stroke-miterlimit="10"/>
<path d="M26.2272 45.2006C22.5978 48.8879 16.2083 48.9406 12.5315 45.3113C8.72838 41.566 8.67043 35.4241 12.4157 31.6156C14.2488 29.7509 16.7034 28.7238 19.3214 28.7238C21.8762 28.7238 24.2887 29.7088 26.1113 31.505C29.9197 35.2502 29.9671 41.3922 26.2272 45.2006Z" fill="#CC2A27"/>
<path d="M24.5256 38.3634H19.3213V33.1537" stroke="white" stroke-width="2" stroke-miterlimit="10" stroke-linecap="round"/>
</svg>
