<svg width="70" height="70" viewBox="0 0 70 70" fill="none" xmlns="http://www.w3.org/2000/svg">
<path d="M51.0713 0H18.9284C14.5236 0 10.9522 3.3871 10.9522 7.56452V62.4355C10.9522 66.6129 14.5236 70 18.9284 70H51.0713C55.476 70 59.0474 66.6129 59.0474 62.4355V7.56452C59.0474 3.3871 55.476 0 51.0713 0ZM44.2855 2.25806L43.3332 5.08065H26.6665L25.7141 2.25806H44.2855ZM56.6665 62.4355C56.6665 65.371 54.1665 67.7419 51.0713 67.7419H18.9284C15.8332 67.7419 13.3332 65.371 13.3332 62.4355V7.56452C13.3332 4.62903 15.8332 2.25806 18.9284 2.25806H23.2141L24.7617 6.54839C24.8808 7 25.357 7.33871 25.8332 7.33871H44.1665C44.6427 7.33871 45.1189 7 45.2379 6.54839L46.7855 2.25806H51.0713C54.1665 2.25806 56.6665 4.62903 56.6665 7.56452V62.4355Z" fill="#7C5961"/>
<path d="M38.8097 61.9838H31.0716C30.3573 61.9838 29.8811 62.4354 29.8811 63.1128C29.8811 63.7902 30.3573 64.2418 31.0716 64.2418H38.8097C39.524 64.2418 40.0001 63.7902 40.0001 63.1128C40.0001 62.4354 39.524 61.9838 38.8097 61.9838Z" fill="#7C5961"/>
<path d="M35 17.2742C25.3572 17.2742 17.381 24.7258 17.381 33.9838C17.381 43.2419 25.2381 50.6935 35 50.6935C44.7619 50.6935 52.6191 43.129 52.6191 33.8709C52.6191 24.6129 44.6429 17.2742 35 17.2742ZM35 48.3226C26.6667 48.3226 19.7619 41.8871 19.7619 33.8709C19.7619 25.9677 26.5476 19.4193 35 19.4193C43.4524 19.4193 50.2381 25.9677 50.2381 33.8709C50.2381 41.8871 43.3334 48.3226 35 48.3226Z" fill="#CC2A27"/>
<path d="M42.6192 29.129H40.1192V26.7581C40.1192 25.5161 39.0477 24.5 37.7382 24.5H32.3811C31.0716 24.5 30.0001 25.5161 30.0001 26.7581V29.129H27.3811C26.0716 29.129 25.0001 30.1452 25.0001 31.3871V36.4677C25.0001 37.7097 26.0716 38.7258 27.3811 38.7258H29.8811V41.0968C29.8811 42.3387 30.9525 43.3548 32.262 43.3548H37.6192C38.9287 43.3548 40.0001 42.3387 40.0001 41.0968V38.7258H42.5001C43.8096 38.7258 44.8811 37.7097 44.8811 36.4677V31.3871C45.0001 30.1452 43.9287 29.129 42.6192 29.129ZM42.6192 36.4677H38.9287C38.2144 36.4677 37.7382 36.9194 37.7382 37.5968V41.0968H32.3811V37.5968C32.3811 36.9194 31.9049 36.4677 31.1906 36.4677H27.5001V31.3871H31.1906C31.9049 31.3871 32.3811 30.9355 32.3811 30.2581V26.7581H37.7382V30.2581C37.7382 30.9355 38.2144 31.3871 38.9287 31.3871H42.6192V36.4677Z" fill="#CC2A27"/>
<path d="M2.38095 33.871C2.38095 30.2581 3.80952 26.7581 6.42857 24.0484C6.90476 23.5968 6.78572 22.9194 6.30952 22.4678C5.83333 22.0162 5.11905 22.1291 4.64286 22.5807C1.66667 25.6291 0 29.6936 0 33.871C0 38.0484 1.66667 42.113 4.64286 45.1613C4.88095 45.3871 5.2381 45.5001 5.47619 45.5001C5.71429 45.5001 6.07143 45.3871 6.30952 45.1613C6.78572 44.7097 6.78572 44.0323 6.42857 43.5807C3.80952 40.9839 2.38095 37.4839 2.38095 33.871Z" fill="#7C5961"/>
<path d="M7.14292 33.8709C7.14292 32.5161 7.61911 31.2742 8.69053 30.258C9.16673 29.8064 9.04768 29.129 8.57149 28.6774C8.0953 28.2258 7.38101 28.3387 6.90482 28.7903C5.5953 30.1451 4.76196 31.9516 4.76196 33.8709C4.76196 35.7903 5.47625 37.5967 6.90482 39.0645C7.14292 39.2903 7.50006 39.4032 7.73815 39.4032C7.97625 39.4032 8.33339 39.2903 8.57149 39.0645C9.04768 38.6129 9.04768 37.9355 8.69053 37.4838C7.73815 36.5806 7.14292 35.2258 7.14292 33.8709Z" fill="#7C5961"/>
<path d="M65.3572 22.5808C64.8811 22.1292 64.1668 22.1292 63.6906 22.4679C63.2144 22.9195 63.2144 23.5969 63.5715 24.0485C66.1906 26.7582 67.6191 30.1453 67.6191 33.8711C67.6191 37.484 66.1906 40.984 63.5715 43.6937C63.0953 44.1453 63.0953 44.8227 63.6906 45.2743C63.9287 45.5001 64.1668 45.613 64.5239 45.613C64.8811 45.613 65.1192 45.5001 65.3572 45.2743C68.3334 42.2259 70.0001 38.1614 70.0001 33.984C70.0001 29.6937 68.3334 25.6292 65.3572 22.5808Z" fill="#7C5961"/>
<path d="M63.0952 28.7904C62.619 28.3388 61.9047 28.3388 61.4285 28.6775C60.9523 29.1291 60.9523 29.8065 61.3095 30.2581C62.2619 31.2742 62.8571 32.5162 62.8571 33.871C62.8571 35.2259 62.3809 36.4678 61.3095 37.4839C60.8333 37.9355 60.9523 38.613 61.4285 39.0646C61.6666 39.2904 61.9047 39.4033 62.2619 39.4033C62.619 39.4033 62.8571 39.2904 63.0952 39.0646C64.5238 37.7097 65.2381 35.7904 65.2381 33.871C65.2381 31.9517 64.4047 30.1452 63.0952 28.7904Z" fill="#7C5961"/>
</svg>
