<svg width="48" height="48" viewBox="0 0 48 48" fill="none" xmlns="http://www.w3.org/2000/svg">
<path d="M26.7089 41.4988H4.2323C3.29693 41.4988 2.53753 40.7393 2.53753 39.804V16.3735H41.4988V26.7181C42.4156 27.1441 43.2676 27.6905 44.027 28.3295V8.18677C44.027 5.85298 42.1285 3.95447 39.7947 3.95447H34.1455V1.26876C34.1455 0.926105 34.0158 0.611229 33.775 0.370442C33.5343 0.129655 33.2194 0 32.8767 0C32.1821 0 31.608 0.564924 31.608 1.26876V3.95447H14.3824V1.26876C14.3917 0.574185 13.8175 0.00926105 13.1229 0.00926105C12.4283 0.00926105 11.8541 0.574185 11.8541 1.27802V3.96373H4.2323C1.89852 3.96373 0 5.86224 0 8.19603V39.804C0 42.1378 1.89852 44.0363 4.2323 44.0363H28.3203C27.672 43.2676 27.1256 42.4156 26.7089 41.4988ZM2.53753 8.18677C2.53753 7.2514 3.29693 6.49199 4.2323 6.49199H11.8541V7.92746C10.7428 8.06637 9.88154 9.011 9.88154 10.1594C9.88154 11.4003 10.891 12.4098 12.132 12.4098C13.373 12.4098 14.3824 11.4003 14.3824 10.1594V6.49199H31.608V7.92746C30.4966 8.06637 29.6354 9.011 29.6354 10.1594C29.6354 11.4003 30.6448 12.4098 31.8858 12.4098C33.1268 12.4098 34.1362 11.4003 34.1362 10.1594V6.49199H39.7855C40.7208 6.49199 41.4802 7.2514 41.4802 8.18677V13.836H2.53753V8.18677Z" fill="#7C5961"/>
<path d="M36.8588 47.9444C43.0118 47.9444 47.9999 42.9564 47.9999 36.8034C47.9999 30.6504 43.0118 25.6624 36.8588 25.6624C30.7058 25.6624 25.7178 30.6504 25.7178 36.8034C25.7178 42.9564 30.7058 47.9444 36.8588 47.9444Z" fill="#CC2A27"/>
<path d="M40.8222 35.5439H38.1365V32.8582C38.1365 32.1636 37.5716 31.5894 36.8678 31.5894C36.1732 31.5894 35.599 32.1543 35.599 32.8582V35.5439H32.9133C32.2187 35.5439 31.6445 36.1088 31.6445 36.8126C31.6445 37.5072 32.2095 38.0814 32.9133 38.0814H35.599V40.7671C35.599 41.4617 36.1639 42.0359 36.8678 42.0359C37.5716 42.0359 38.1365 41.4524 38.1365 40.7579V38.0721H40.8222C41.5168 38.0721 42.091 37.5072 42.091 36.8034C42.091 36.1088 41.5168 35.5439 40.8222 35.5439Z" fill="white"/>
</svg>
